# xmcd CD database file
#
# Track frame offsets:
#	150
#	21133
#	45967
#	67983
#	86737
#	102275
#	119904
#	138431
#	160414
#	185937
#	207505
#
# Disc length: 2962 seconds
#
# Revision: 1
# Processed by: cddbd v1.5.2PL0 Copyright (c) Steve Scherf et al.
# Submitted via: CDex 1.70beta2
#
DISCID=a10b900b
DTITLE=Taneytown - Taneytown
DYEAR=2006
DGENRE=Country
TTITLE0=Say Those Words
TTITLE1=Songs For The Broken Hearted
TTITLE2=Never Turn My Back On You
TTITLE3=Can't Wait Till Midnight
TTITLE4=I Thought You Knew
TTITLE5=Let it Rain
TTITLE6=Lame It On Jack
TTITLE7=Here's To You
TTITLE8=What Do You Want Me To Say
TTITLE9=This Is Now I Feel
TTITLE10=Albuquerque, New Mexico
EXTD=YEAR: 2006
EXTT0=
EXTT1=
EXTT2=
EXTT3=
EXTT4=
EXTT5=
EXTT6=
EXTT7=
EXTT8=
EXTT9=
EXTT10=
PLAYORDER=
